<svg width="217" height="268" viewBox="0 0 217 268" fill="none" xmlns="http://www.w3.org/2000/svg">
<path d="M217 252.737C217 260.832 178.936 267.393 131.983 267.393C85.0289 267.393 51.4219 246.175 51.4219 238.081C51.4219 229.987 85.0289 238.081 131.983 238.081C178.936 238.081 217 244.643 217 252.737Z" fill="#D9E1F6" fill-opacity="0.5"/>
<path d="M48.7046 65.1877L120.101 181.501L119.171 182.07L47.7751 65.7561L48.7046 65.1877Z" fill="#3F3D56"/>
<path d="M121.579 249.25H117.125L115.005 232.101H121.579V249.25Z" fill="#FFB8B8"/>
<path d="M122.715 247.798H113.943C112.46 247.8 111.039 248.388 109.991 249.434C108.943 250.481 108.354 251.899 108.352 253.378V253.56H122.715V247.798Z" fill="#2F2E41"/>
<path d="M179.022 240.825L175.203 243.115L164.537 229.505L170.173 226.125L179.022 240.825Z" fill="#FFB8B8"/>
<path d="M182.22 243.935L179.247 238.997L171.727 243.506C170.458 244.269 169.543 245.504 169.185 246.94C168.826 248.375 169.052 249.894 169.814 251.163L169.908 251.318L182.22 243.935Z" fill="#2F2E41"/>
<path d="M122.791 245.656C123.69 244.743 125.922 229.745 129.225 206.968C130.373 199.047 131.46 191.551 132.356 185.81C140.02 202.626 152.411 220.817 167.3 237.101L167.386 237.195L167.504 237.147C172.267 235.189 173.154 234.735 175.295 233.639C175.935 233.312 176.687 232.927 177.689 232.427L177.745 232.384C178.205 231.859 174.008 224.906 159.334 201.264C152.941 190.965 146.331 180.315 141.953 172.921L141.912 172.853L141.834 172.836C131.25 170.633 121.046 173.219 113.099 180.117L113.035 180.173L113.037 180.259C113.251 188.929 113.071 202.543 112.912 214.555C112.602 238.006 112.622 244.857 113.354 245.074L113.391 245.081C114.464 245.169 115.354 245.257 116.175 245.338C118.329 245.579 120.494 245.704 122.661 245.711L122.737 245.711L122.791 245.656Z" fill="#2F2E41"/>
<path d="M145.863 107.538C147.363 101.359 148.633 94.3886 145.805 88.697C143.843 84.7479 136.584 83.418 132.423 84.8407C128.262 86.2634 125.253 90.1233 123.93 94.3318C122.607 98.5404 122.761 103.075 123.337 107.45C130.99 107.304 138.643 107.157 145.863 107.538Z" fill="#2F2E41"/>
<path d="M132.949 107.537C128.02 107.537 124.025 103.549 124.025 98.6295C124.025 93.7102 128.02 89.7224 132.949 89.7224C137.878 89.7224 141.873 93.7102 141.873 98.6295C141.873 103.549 137.878 107.537 132.949 107.537Z" fill="#FFB8B8"/>
<path d="M143.859 96.7947C143.887 95.2956 143.613 93.8061 143.053 92.4147C142.494 91.0233 141.659 89.7584 140.6 88.6951C139.541 87.6319 138.278 86.792 136.888 86.2254C135.497 85.6588 134.006 85.377 132.504 85.3967C131.002 85.4165 129.519 85.7374 128.144 86.3404C126.768 86.9435 125.528 87.8163 124.498 88.907C123.467 89.9978 122.666 91.2842 122.143 92.6898C121.621 94.0954 121.386 95.5916 121.454 97.0895C129.093 97.1057 136.731 97.1219 143.859 96.7947Z" fill="#2F2E41"/>
<path d="M108.795 183.94C110.44 178.336 111.26 174.415 112.206 169.886C113.504 163.677 114.975 156.64 119.027 142.94L119.037 142.906L119.033 142.871C117.886 130.989 122.887 118.38 132.084 109.965C132.702 109.444 133.494 109.177 134.301 109.217C135.109 109.258 135.87 109.604 136.431 110.184C141.606 115.984 144.858 121.416 146.373 126.792L146.405 126.909C144.245 133.846 141.828 140.818 139.489 147.564L139.455 147.66L139.521 147.739C148.277 158.262 153.12 172.328 152.829 186.369C144.447 183.445 135.627 181.971 126.749 182.011C120.712 182.012 114.693 182.659 108.795 183.94Z" fill="#3F3D56"/>
<path opacity="0.1" d="M139.82 138.7L126.64 167.342L119.11 159.734L139.82 138.7Z" fill="black"/>
<path d="M107.29 36.5055L110.56 36.48C111.596 30.3541 111.547 24.0944 110.416 17.9854L107.146 18.0108C108.611 24.3944 108.659 30.5593 107.29 36.5055Z" fill="white"/>
<path d="M62.2676 42.5334L65.5274 42.275C66.1222 36.091 65.6257 29.8507 64.0603 23.8379L60.8005 24.0963C62.7185 30.3592 63.2076 36.5049 62.2676 42.5334Z" fill="white"/>
<path d="M22.5455 38.0428C21.2746 22.0701 30.7849 8.28622 43.7874 7.25553C56.7899 6.22483 68.361 18.3376 69.6319 34.3103C70.7842 48.7914 63.0746 61.473 51.9352 64.4834L53.0497 69.0937L44.4208 69.7777L44.7923 65.0496C33.3163 63.8319 23.6978 52.5238 22.5455 38.0428Z" fill="#ACA7FF"/>
<path d="M43.4715 65.1236L53.251 64.3484L53.4236 66.5175L43.6441 67.2927L43.4715 65.1236Z" fill="#3F3D56"/>
<path d="M91.2334 58.6702L115.131 192.975L114.058 193.165L90.1603 58.8605L91.2334 58.6702Z" fill="#3F3D56"/>
<path d="M67.991 29.1958C67.8657 13.1734 78.3376 0.102247 91.3807 0.000596356C104.424 -0.101055 115.099 12.8053 115.224 28.8277C115.338 43.354 106.741 55.4539 95.4146 57.6629L96.1965 62.3409L87.5408 62.4084L88.2494 57.7188C76.8898 55.6866 68.1047 43.7221 67.991 29.1958Z" fill="#6978FF"/>
<path d="M86.9268 57.6985L96.7368 57.6221L96.7538 59.7979L86.9439 59.8744L86.9268 57.6985Z" fill="#3F3D56"/>
<path d="M42.3061 42.0264L45.1917 40.4907C43.2638 34.5837 40.3128 29.06 36.4729 24.1707L33.5874 25.7063C37.8507 30.6844 40.757 36.1245 42.3061 42.0264Z" fill="white"/>
<path d="M39.6015 68.9541L120.004 179.257L119.123 179.897L38.7201 69.5942L39.6015 68.9541Z" fill="#3F3D56"/>
<path d="M4.08981 53.7342C-3.46348 39.5956 -0.256287 23.1685 11.2532 17.0432C22.7627 10.9178 38.2162 17.4138 45.7695 31.5524C52.6174 44.3707 50.6205 59.0698 41.6109 66.2679L44.4766 70.051L36.8385 74.116L35.2882 69.6329C24.2792 73.0885 10.9378 66.5525 4.08981 53.7342Z" fill="#6978FF"/>
<path d="M34.1069 70.2271L42.7634 65.6201L43.7892 67.5401L35.1326 72.1471L34.1069 70.2271Z" fill="#3F3D56"/>
<path d="M110.435 169.144C110.967 169.107 111.486 168.954 111.953 168.696C112.42 168.437 112.825 168.079 113.138 167.648C113.452 167.216 113.667 166.722 113.768 166.198C113.87 165.675 113.855 165.135 113.725 164.618L124.585 157.516L118.391 154.845L109.028 161.999C108.172 162.275 107.447 162.854 106.991 163.628C106.534 164.401 106.378 165.315 106.551 166.196C106.725 167.076 107.216 167.863 107.932 168.406C108.647 168.95 109.538 169.212 110.435 169.144Z" fill="#FFB8B8"/>
<path d="M120.995 163.902C127.49 156.444 134.205 148.733 140.32 140.98L140.359 140.928L140.358 140.865C140.331 134.534 140.302 127.989 139.55 120.667C140.145 120.04 140.592 119.289 140.858 118.468C141.124 117.647 141.203 116.776 141.09 115.921C141.009 114.961 140.713 114.031 140.224 113.2C139.734 112.369 139.064 111.659 138.262 111.122C135.202 109.192 130.617 110.237 128.45 113.358C126.357 116.371 126.663 120.687 128.26 122.861L130.027 136.697L130.184 136.685L130.149 136.702L130.137 136.692L130.114 136.72L130.06 136.748C130.063 136.753 130.066 136.762 130.071 136.773C124.336 143.762 118.406 150.986 112.483 157.903L112.352 158.056L112.519 158.17C115.294 160.069 118.163 162.033 120.748 163.931L120.885 164.028L120.995 163.902Z" fill="#3F3D56"/>
</svg>
